<svg width="15" height="16" xmlns="http://www.w3.org/2000/svg" xmlns:xlink="http://www.w3.org/1999/xlink" xmlns:svgjs="http://svgjs.com/svgjs" viewBox="1442 493 15 16"><svg width="11" height="12" xmlns="http://www.w3.org/2000/svg" xmlns:xlink="http://www.w3.org/1999/xlink" xmlns:svgjs="http://svgjs.com/svgjs" viewBox="0 0.361 11 11.279" fill="#71727d" x="1444" y="497"><svg xmlns="http://www.w3.org/2000/svg" xmlns:xlink="http://www.w3.org/1999/xlink" width="11" height="12" viewBox="0.288 0.779 10.66 10.93"><path paint-order="stroke fill markers" fill-rule="evenodd" d="M10.557.78H.682A.39.39 0 0 0 .39.878a.331.331 0 0 0-.097.293l1.015 8.84c.119.974.95 1.705 1.932 1.697h4.917c1.01.015 1.86-.75 1.952-1.756l.839-8.82a.331.331 0 0 0-.098-.254.39.39 0 0 0-.292-.098zm-1.23 9.133a1.132 1.132 0 0 1-1.17 1.015H3.238a1.112 1.112 0 0 1-1.152-.995L1.112 1.56h9.015l-.8 8.352z"/></svg></svg><svg width="15" height="4" xmlns="http://www.w3.org/2000/svg" xmlns:xlink="http://www.w3.org/1999/xlink" xmlns:svgjs="http://svgjs.com/svgjs" viewBox="0 0.591 15 2.818" fill="#71727d" x="1442" y="493"><svg xmlns="http://www.w3.org/2000/svg" width="15" height="4" viewBox="0.867 0.487 13.504 2.537"><path paint-order="stroke fill markers" fill-rule="evenodd" d="M13.981 2.244h-4.02v-.625A1.093 1.093 0 0 0 8.85.487H6.39A1.093 1.093 0 0 0 5.278 1.62v.625h-4.02a.39.39 0 1 0 0 .78H13.98a.39.39 0 1 0 0-.78zm-4.8-.625v.625H6.058v-.625a.312.312 0 0 1 .332-.351h2.459a.312.312 0 0 1 .332.351z"/></svg></svg></svg>