<svg width="14" height="14" xmlns="http://www.w3.org/2000/svg" xmlns:xlink="http://www.w3.org/1999/xlink" xmlns:svgjs="http://svgjs.com/svgjs" viewBox="0.008 0 13.983 14" fill="#71727d"><svg xmlns="http://www.w3.org/2000/svg" width="14" height="14" viewBox="0.771 0.697 12.581 12.596"><path paint-order="stroke fill markers" fill-rule="evenodd" d="M1.203 13.293h.085l4.107-.894a.403.403 0 0 0 .212-.106l6.958-6.958a2.681 2.681 0 0 0 .787-1.915c.001-.723-.282-1.418-.787-1.936A2.68 2.68 0 0 0 10.65.697a2.617 2.617 0 0 0-1.915.808L1.8 8.463a.383.383 0 0 0-.128.191l-.893 4.107a.468.468 0 0 0 .127.404c.079.08.186.126.298.128zM10.65 1.548c1.022 0 1.851.829 1.851 1.85v.022c.007.487-.185.956-.532 1.298L9.352 2.08a1.83 1.83 0 0 1 1.298-.532zM8.756 2.697l2.617 2.617-6.063 6.042-2.617-2.595 6.063-6.064zM2.352 9.612l2.106 2.106-2.702.596.596-2.702z"/></svg></svg>