<svg xmlns="http://www.w3.org/2000/svg" width="22.125" height="19.503" viewBox="0 0 22.125 19.503">
  <g id="online" transform="translate(0 -30.287)" opacity="0.5">
    <path id="Контур_6012" data-name="Контур 6012" d="M21.609,120.967h-.542v-9.535a.325.325,0,1,0-.649,0v9.535H17.709a.325.325,0,1,0,0,.649h3.767v.137a.843.843,0,0,1-.842.842H1.491a.843.843,0,0,1-.842-.842v-.137H16.326a.325.325,0,1,0,0-.649H1.707V108.143a.429.429,0,0,1,.428-.428H12.773a.325.325,0,1,0,0-.649H2.135a1.079,1.079,0,0,0-1.078,1.078v12.824H.516a.516.516,0,0,0-.516.516v.271a1.493,1.493,0,0,0,1.491,1.491H20.634a1.493,1.493,0,0,0,1.491-1.491v-.271A.516.516,0,0,0,21.609,120.967Z" transform="translate(0 -73.455)" fill="#fff"/>
    <path id="Контур_6013" data-name="Контур 6013" d="M64.851,137.714a.325.325,0,0,0,0-.649H54.76a.325.325,0,0,0-.325.325v11.3a.325.325,0,0,0,.325.325h2.812a.325.325,0,0,0,0-.649H55.084V137.714Z" transform="translate(-52.079 -102.156)" fill="#fff"/>
    <path id="Контур_6014" data-name="Контур 6014" d="M158.037,198.495v-2.146a1.07,1.07,0,0,0-1.068-1.068h-2.036l-.6-.2a.47.47,0,0,0-.617.447v2.964a2.161,2.161,0,0,0,1.042,1.848v.358l-1.426,1.184a1.338,1.338,0,0,0-.485,1.033v.937h-1.162a.325.325,0,1,0,0,.649h12.567a.325.325,0,0,0,.325-.325v-8.53a.325.325,0,1,0-.649,0v8.206H158.9v-.937a1.338,1.338,0,0,0-.485-1.033l-1.426-1.184v-.353A2.161,2.161,0,0,0,158.037,198.495Zm-3.258-2.582a.324.324,0,0,0,.1.016h2.088a.42.42,0,0,1,.419.419V197h-3.022v-1.224Zm-.413,1.738h3.022v.844a1.511,1.511,0,0,1-3.022,0v-.844Zm3.881,5.266v.937H153.5v-.937a.691.691,0,0,1,.25-.533l1.22-1.013a1.112,1.112,0,0,0,1.81,0l1.22,1.013A.691.691,0,0,1,158.247,202.917Zm-1.91-2.194a.464.464,0,0,1-.929,0V200.6a2.147,2.147,0,0,0,.929,0v.118Z" transform="translate(-144.81 -157.641)" fill="#fff"/>
    <path id="Контур_6015" data-name="Контур 6015" d="M324.15,30.287h-4.786a1.8,1.8,0,0,0-1.8,1.8v5.252a.553.553,0,0,0,.364.523.564.564,0,0,0,.2.035.553.553,0,0,0,.421-.2l.57-.665h1.945a.325.325,0,0,0,0-.649h-2.094a.325.325,0,0,0-.246.113l-.507.591V32.083a1.148,1.148,0,0,1,1.147-1.147h4.786a1.148,1.148,0,0,1,1.147,1.147v3.154a1.148,1.148,0,0,1-1.147,1.147h-1.7a.325.325,0,0,0,0,.649h1.7a1.8,1.8,0,0,0,1.8-1.8V32.083A1.8,1.8,0,0,0,324.15,30.287Z" transform="translate(-303.821)" fill="#fff"/>
  </g>
</svg>
