<svg xmlns="http://www.w3.org/2000/svg" width="20.64" height="20.64" viewBox="0 0 20.64 20.64">
  <g id="Сгруппировать_5516" data-name="Сгруппировать 5516" opacity="0.5">
    <path id="Контур_1036" data-name="Контур 1036" d="M19.584,8.154l-1.449-.246A8.18,8.18,0,0,0,17.553,6.5l.854-1.194a1.271,1.271,0,0,0-.138-1.643L16.984,2.381a1.266,1.266,0,0,0-.9-.375,1.253,1.253,0,0,0-.737.237l-1.2.854a8.1,8.1,0,0,0-1.457-.6l-.241-1.431A1.274,1.274,0,0,0,11.189,0H9.374A1.274,1.274,0,0,0,8.115,1.066l-.25,1.466a7.979,7.979,0,0,0-1.4.591L5.277,2.269a1.274,1.274,0,0,0-1.643.138L2.346,3.692a1.276,1.276,0,0,0-.138,1.643L3.07,6.546A7.99,7.99,0,0,0,2.5,7.956L1.065,8.2A1.274,1.274,0,0,0,0,9.456v1.815a1.274,1.274,0,0,0,1.065,1.259l1.466.25a7.979,7.979,0,0,0,.591,1.4l-.849,1.181a1.271,1.271,0,0,0,.138,1.643L3.7,18.291a1.266,1.266,0,0,0,.9.375,1.253,1.253,0,0,0,.737-.237l1.212-.862a8.157,8.157,0,0,0,1.362.561l.241,1.449a1.274,1.274,0,0,0,1.259,1.065h1.82a1.274,1.274,0,0,0,1.259-1.065l.246-1.449a8.18,8.18,0,0,0,1.406-.582l1.194.854a1.266,1.266,0,0,0,.742.237h0a1.266,1.266,0,0,0,.9-.375l1.285-1.285a1.276,1.276,0,0,0,.138-1.643l-.854-1.2a8.121,8.121,0,0,0,.582-1.406l1.449-.241a1.274,1.274,0,0,0,1.065-1.259V9.413A1.258,1.258,0,0,0,19.584,8.154Zm-.1,3.074a.112.112,0,0,1-.095.112l-1.811.3a.579.579,0,0,0-.466.427,6.9,6.9,0,0,1-.75,1.807.583.583,0,0,0,.026.634l1.065,1.5a.117.117,0,0,1-.013.147l-1.285,1.285a.109.109,0,0,1-.082.034.106.106,0,0,1-.065-.022l-1.5-1.065a.583.583,0,0,0-.634-.026,6.9,6.9,0,0,1-1.807.75.572.572,0,0,0-.427.466l-.306,1.811a.112.112,0,0,1-.112.095H9.412a.112.112,0,0,1-.112-.095L9,17.58a.579.579,0,0,0-.427-.466A7.167,7.167,0,0,1,6.8,16.39a.6.6,0,0,0-.293-.078.568.568,0,0,0-.336.108L4.665,17.493a.128.128,0,0,1-.065.022.116.116,0,0,1-.082-.034L3.234,16.2a.117.117,0,0,1-.013-.147l1.061-1.488a.59.59,0,0,0,.026-.638,6.837,6.837,0,0,1-.759-1.8.59.59,0,0,0-.466-.427l-1.824-.31a.112.112,0,0,1-.095-.112V9.456a.112.112,0,0,1,.095-.112l1.8-.3a.583.583,0,0,0,.47-.431A6.9,6.9,0,0,1,4.264,6.8a.576.576,0,0,0-.03-.63L3.16,4.662a.117.117,0,0,1,.013-.147L4.458,3.23A.11.11,0,0,1,4.54,3.2a.106.106,0,0,1,.065.022L6.092,4.278a.59.59,0,0,0,.638.026,6.837,6.837,0,0,1,1.8-.759A.59.59,0,0,0,8.96,3.08l.31-1.824a.112.112,0,0,1,.112-.095H11.2a.112.112,0,0,1,.112.095l.3,1.8a.583.583,0,0,0,.431.47,7,7,0,0,1,1.85.759.583.583,0,0,0,.634-.026l1.488-1.069a.128.128,0,0,1,.065-.022.116.116,0,0,1,.082.034l1.285,1.285a.117.117,0,0,1,.013.147l-1.065,1.5a.583.583,0,0,0-.026.634,6.9,6.9,0,0,1,.75,1.807A.572.572,0,0,0,17.583,9l1.811.306a.112.112,0,0,1,.095.112v1.815Z" transform="translate(0 -0.001)" fill="#fff"/>
    <path id="Контур_1037" data-name="Контур 1037" d="M140.554,136a4.454,4.454,0,1,0,4.454,4.454A4.457,4.457,0,0,0,140.554,136Zm0,7.744a3.29,3.29,0,1,1,3.29-3.29A3.292,3.292,0,0,1,140.554,143.745Z" transform="translate(-130.232 -130.137)" fill="#fff"/>
  </g>
</svg>
