<svg xmlns="http://www.w3.org/2000/svg" width="22" height="19.766" viewBox="0 0 22 19.766">
  <g id="interface_5_" data-name="interface (5)" opacity="0.5">
    <path id="Контур_5990" data-name="Контур 5990" d="M146.859,40.43a.43.43,0,1,1-.43-.43A.43.43,0,0,1,146.859,40.43Zm0,0" transform="translate(-139.727 -38.281)" fill="#fff"/>
    <path id="Контур_5991" data-name="Контур 5991" d="M106.859,40.43a.43.43,0,1,1-.43-.43A.43.43,0,0,1,106.859,40.43Zm0,0" transform="translate(-101.445 -38.281)" fill="#fff"/>
    <path id="Контур_5992" data-name="Контур 5992" d="M66.859,40.43a.43.43,0,1,1-.43-.43A.43.43,0,0,1,66.859,40.43Zm0,0" transform="translate(-63.164 -38.281)" fill="#fff"/>
    <path id="Контур_5993" data-name="Контур 5993" d="M81.9,140H66.43a.43.43,0,0,0-.43.43v2.578a.43.43,0,0,0,.43.43H81.9a.43.43,0,0,0,.43-.43V140.43A.43.43,0,0,0,81.9,140Zm-.43,2.578H66.859v-1.719H81.469Zm0,0" transform="translate(-63.164 -133.984)" fill="#fff"/>
    <path id="Контур_5994" data-name="Контур 5994" d="M74.164,260H66.43a.43.43,0,0,0-.43.43v5.156a.43.43,0,0,0,.43.43h7.734a.43.43,0,0,0,.43-.43V260.43A.43.43,0,0,0,74.164,260Zm-.43,5.156H66.859v-4.3h6.875Zm0,0" transform="translate(-63.164 -248.828)" fill="#fff"/>
    <path id="Контур_5995" data-name="Контур 5995" d="M311.586,260H306.43a.43.43,0,0,0-.43.43v5.156a.43.43,0,0,0,.43.43h5.156a.43.43,0,0,0,.43-.43V260.43A.43.43,0,0,0,311.586,260Zm-.43,5.156h-4.3v-4.3h4.3Zm0,0" transform="translate(-292.852 -248.828)" fill="#fff"/>
    <path id="Контур_5996" data-name="Контур 5996" d="M246.859.43a.43.43,0,1,1-.43-.43A.43.43,0,0,1,246.859.43Zm0,0" transform="translate(-235.43)" fill="#fff"/>
    <path id="Контур_5997" data-name="Контур 5997" d="M20.711,0H12.934a.43.43,0,0,0,0,.859h7.777a.43.43,0,0,1,.43.43V3.438H.859V1.289a.43.43,0,0,1,.43-.43H9.066a.43.43,0,1,0,0-.859H1.289A1.29,1.29,0,0,0,0,1.289V18.477a1.29,1.29,0,0,0,1.289,1.289H20.711A1.29,1.29,0,0,0,22,18.477V1.289A1.29,1.29,0,0,0,20.711,0Zm0,18.906H1.289a.43.43,0,0,1-.43-.43V4.3H21.141v14.18A.43.43,0,0,1,20.711,18.906Zm0,0" fill="#fff"/>
  </g>
</svg>
