<svg xmlns="http://www.w3.org/2000/svg" width="22" height="22.573" viewBox="0 0 22 22.573">
  <g id="people" transform="translate(-6.5)" opacity="0.5">
    <g id="Сгруппировать_4978" data-name="Сгруппировать 4978" transform="translate(6.5 0)">
      <path id="Контур_6020" data-name="Контур 6020" d="M21.715,6.015V1.451A1.452,1.452,0,0,0,20.264,0H17.19a.441.441,0,0,0,0,.882h3.075a.569.569,0,0,1,.568.569V9.3a.569.569,0,0,1-.568.569h-1.41a.441.441,0,0,0-.428.334l-.434,1.728-1.48-1.892a.441.441,0,0,0-.347-.169H7.95A.569.569,0,0,1,7.382,9.3V1.451A.569.569,0,0,1,7.95.882h5.283a.441.441,0,1,0,0-.882H7.95A1.452,1.452,0,0,0,6.5,1.451V9.3a1.452,1.452,0,0,0,1.45,1.451h6.866a7.042,7.042,0,0,0-.337,1.482c-.01.09-.015.157-.019.21a.452.452,0,0,1-.074.249l-1.391,2.8a.9.9,0,0,0-.079.883.818.818,0,0,0,.724.316h.793a13.853,13.853,0,0,0,.229,2.014c.031.187.063.38.094.582a1.292,1.292,0,0,0,1.236,1.174h2.489a1.665,1.665,0,0,0,.044.179l.434,1.416a.657.657,0,0,0,.632.524h5.014a.653.653,0,0,0,.652-.652V18.978A7.04,7.04,0,0,0,21.715,6.015Zm2.878,12.338a.441.441,0,0,0-.216.379v2.96h-4.6l-.4-1.318a1.148,1.148,0,0,1-.032-.148.7.7,0,0,0-.791-.653H15.992c-.22,0-.334-.23-.365-.427s-.064-.4-.1-.591a12.114,12.114,0,0,1-.22-2.073.668.668,0,0,0-.164-.523.727.727,0,0,0-.581-.158h-.746l1.353-2.719a1.271,1.271,0,0,0,.164-.58c0-.047.007-.1.015-.17a6.154,6.154,0,0,1,.4-1.583h.193l1.9,2.433a.441.441,0,0,0,.775-.164l.569-2.268h1.066A1.452,1.452,0,0,0,21.715,9.3V6.9a6.158,6.158,0,0,1,2.878,11.455Z" transform="translate(-6.5 0)" fill="#fff"/>
      <path id="Контур_6021" data-name="Контур 6021" d="M62.322,164.3h3.669a.441.441,0,1,0,0-.882H62.322a.441.441,0,1,0,0,.882Z" transform="translate(-59.439 -156.209)" fill="#fff"/>
      <path id="Контур_6022" data-name="Контур 6022" d="M62.322,112.791h1.566a.441.441,0,1,0,0-.882H62.322a.441.441,0,0,0,0,.882Z" transform="translate(-59.439 -106.975)" fill="#fff"/>
      <path id="Контур_6023" data-name="Контур 6023" d="M68.249,60.377H62.322a.441.441,0,1,0,0,.882h5.927a.441.441,0,0,0,0-.882Z" transform="translate(-59.439 -57.715)" fill="#fff"/>
      <path id="Контур_6024" data-name="Контур 6024" d="M248.057,61.259a.441.441,0,0,0,0-.882h-1.319a.441.441,0,0,0,0,.882Z" transform="translate(-235.725 -57.715)" fill="#fff"/>
      <path id="Контур_6025" data-name="Контур 6025" d="M199.1,163.414h-3.577a.441.441,0,0,0,0,.882H199.1a.441.441,0,0,0,0-.882Z" transform="translate(-186.766 -156.209)" fill="#fff"/>
      <path id="Контур_6026" data-name="Контур 6026" d="M147.375,112.35a.441.441,0,0,0,.441.441h5.68a.441.441,0,1,0,0-.882h-5.68A.441.441,0,0,0,147.375,112.35Z" transform="translate(-141.164 -106.975)" fill="#fff"/>
      <path id="Контур_6027" data-name="Контур 6027" d="M38.042,338.495a.441.441,0,0,0-.624,0,4.747,4.747,0,0,0,0,6.7.441.441,0,1,0,.624-.623,3.864,3.864,0,0,1,0-5.453A.441.441,0,0,0,38.042,338.495Z" transform="translate(-34.733 -323.448)" fill="#fff"/>
      <path id="Контур_6028" data-name="Контур 6028" d="M90.793,365.877a.441.441,0,0,0-.623,0,3.035,3.035,0,0,0,0,4.285.441.441,0,1,0,.624-.623,2.152,2.152,0,0,1,0-3.038A.441.441,0,0,0,90.793,365.877Z" transform="translate(-85.634 -349.623)" fill="#fff"/>
      <path id="Контур_6029" data-name="Контур 6029" d="M194.517.882a.441.441,0,1,0,0-.882h0a.441.441,0,0,0,0,.882Z" transform="translate(-185.805 0)" fill="#fff"/>
    </g>
  </g>
</svg>
