<svg xmlns="http://www.w3.org/2000/svg" width="26.347" height="25.506" viewBox="0 0 26.347 25.506">
  <path id="Контур_984" data-name="Контур 984" d="M26.017,17.335a1.256,1.256,0,0,0-.1-1.8L14.139,5.234a1.468,1.468,0,0,0-1.915.022L.41,16.087a1.249,1.249,0,0,0-.057,1.8l.3.308a1.292,1.292,0,0,0,1.773.136l.883-.791V29.111A1.285,1.285,0,0,0,4.59,30.4H9.2a1.285,1.285,0,0,0,1.285-1.285v-8.1h5.874v8.1A1.215,1.215,0,0,0,17.563,30.4h4.881a1.285,1.285,0,0,0,1.285-1.285V17.7l.545.478c.3.264.931.052,1.409-.473Z" transform="translate(0 -4.89)" fill="#1e2637" opacity="0.3"/>
</svg>
