<svg width="27" height="24" xmlns="http://www.w3.org/2000/svg" xmlns:xlink="http://www.w3.org/1999/xlink" xmlns:svgjs="http://svgjs.com/svgjs" fill="#1e2637" opacity=".302"><svg xmlns="http://www.w3.org/2000/svg" width="27" height="24" viewBox="0 0 26.401 23.467"><path paint-order="stroke fill markers" fill-rule="evenodd" d="M11 0c6.075 0 11 3.986 11 8.902 0 4.917-4.925 8.902-11 8.902-.583 0-1.156-.037-1.715-.108-2.363 2.354-5.091 2.776-7.818 2.838v-.576c1.472-.719 2.658-2.028 2.658-3.523 0-.209-.016-.414-.046-.614C1.59 14.189 0 11.696 0 8.902 0 3.986 4.925 0 11 0zm11.825 19.954c0 1.282.833 2.404 2.109 3.02v.493c-2.363-.053-4.533-.415-6.58-2.432-.485.06-.981.093-1.487.093-2.188 0-4.203-.59-5.812-1.583 3.315-.011 6.446-1.073 8.82-2.994 1.196-.969 2.14-2.105 2.805-3.377a9.143 9.143 0 0 0 1.033-4.986c1.663 1.373 2.688 3.245 2.688 5.31 0 2.394-1.379 4.53-3.535 5.93-.026.171-.04.347-.04.526z"/></svg></svg>