<svg xmlns="http://www.w3.org/2000/svg" width="20.219" height="26.062" viewBox="0 0 20.219 26.062">
  <g id="Сгруппировать_1172" data-name="Сгруппировать 1172" opacity="0.3">
    <g id="Сгруппировать_1171" data-name="Сгруппировать 1171" transform="translate(0)">
      <path id="Контур_985" data-name="Контур 985" d="M175.207,404.514c0,.007,0,.014,0,.02a3.09,3.09,0,0,0,6.18,0c0-.007,0-.014,0-.02Z" transform="translate(-168.187 -381.562)" fill="#1e2637"/>
      <path id="Контур_986" data-name="Контур 986" d="M71.469,19.089,68.688,15v-5.1a7.087,7.087,0,0,0-5.7-6.948V1.389a1.389,1.389,0,0,0-2.779,0v1.57a7.087,7.087,0,0,0-5.7,6.948V15l-2.781,4.085a1.4,1.4,0,0,0,1.161,2.2H70.308a1.4,1.4,0,0,0,1.161-2.2Z" transform="translate(-51.493)" fill="#1e2637"/>
    </g>
  </g>
</svg>
