<svg xmlns="http://www.w3.org/2000/svg" width="25.219" height="23.416" viewBox="0 0 25.219 23.416">
  <g id="Сгруппировать_4979" data-name="Сгруппировать 4979" transform="translate(-1795.98 -22.768)" opacity="0.3">
    <g id="Сгруппировать_1174" data-name="Сгруппировать 1174" transform="translate(1813.093 29.093)">
      <g id="Сгруппировать_1173" data-name="Сгруппировать 1173" transform="translate(0 0)">
        <path id="Контур_987" data-name="Контур 987" d="M0,141.409H5.032l-2.966-2.966a.9.9,0,0,1,1.274-1.273l4.5,4.5a.9.9,0,0,1,0,1.274l-4.5,4.5a.9.9,0,0,1-1.274-1.274l2.966-2.967H0Z" transform="translate(0 -136.926)" fill="#1e2637"/>
      </g>
    </g>
    <g id="Сгруппировать_1176" data-name="Сгруппировать 1176" transform="translate(1795.98 22.768)">
      <g id="Сгруппировать_1175" data-name="Сгруппировать 1175" transform="translate(0 0)">
        <path id="Контур_988" data-name="Контур 988" d="M156.3,17.068h11.709a2.7,2.7,0,0,1,2.7,2.7v8.106h-9.907a.9.9,0,1,0,0,1.8h9.907v8.106a2.7,2.7,0,0,1-2.7,2.7H156.3a2.7,2.7,0,0,1-2.7-2.7V19.77A2.7,2.7,0,0,1,156.3,17.068Z" transform="translate(-153.602 -17.068)" fill="#1e2637"/>
      </g>
    </g>
  </g>
</svg>
